<?xml version="1.0"?><svg version="1.2" baseProfile="tiny-ps" viewBox="0 0 300 300" xmlns="http://www.w3.org/2000/svg" xmlns:xlink="http://www.w3.org/1999/xlink"><title>songita</title><g><g fill="#fbb830" transform="matrix(.1 0 0 -.1 0 300)"><path d="M0 1500V0h3000v3000H0V1500z"/></g><g fill="#96783a" transform="matrix(.1 0 0 -.1 0 300)"><path d="M0 1500V0h3000v3000H0V1500zm2212 1038 133-93 81-80 81-80 32-65 32-66 11-68 11-68-12-76-11-77-30-62c-29-64-72-128-99-150l-15-13h-56l-20 20-20 20v63l26 34c14 18 37 59 52 91l27 57v160l-24 49-24 49-56 57c-31 31-90 80-131 109l-75 52-5-783-5-783-19-55c-51-156-151-262-293-311l-56-19h-116l-53 20-53 20-48 41-48 41-21 42-21 41-5 81-4 81 16 56 16 56 43 63 43 63 51 41 51 42 59 23 58 22 76 1 75 1 53-27 52-27-3 422-3 422-29 62-28 62-57 54-56 54-50 19-50 19h-85l-85-1-50-24-50-24-55-56c-30-30-71-74-91-97l-36-43h-45l-96 98-97 99-50 24-50 24H725l-47-24c-26-12-68-41-92-63l-46-39-35-72-36-72-11-68-11-68 12-67 12-66 32-64c66-132 216-312 571-682l186-195-2-34-3-34-26-20-27-19-19 6-19 6-226 228c-326 328-484 513-563 663l-35 66-15 64-15 64v187l16 62c9 33 30 89 47 124l31 63 50 56 50 56 54 34c64 41 140 69 214 78l53 6 73-15 72-15 62-33 62-33 63-59 63-58 53 54c82 86 186 137 308 152l55 7 71-15 71-14 51-27c28-14 69-41 90-60s41-35 45-35c3 0 6 69 6 154v153l21 27 20 26h68l133-92z"/></g><g fill="#2c1d47" transform="matrix(.1 0 0 -.1 0 300)"><path d="M0 1500V0h3000v3000H0V1500zm2152 1083c46-31 125-87 176-126l93-69 51-62 51-61 30-65 30-65 5-96 4-95-17-60c-21-72-64-156-108-208l-34-39h-66l-24 27c-12 15-23 35-23 44s21 51 45 92c52 86 68 134 68 206v51l-18 52-17 53-59 62-59 63-74 52c-41 28-77 51-80 51s-6-342-6-761V869l-16-69-15-68-35-59c-19-32-54-77-76-100l-42-42-65-35-66-34-59-11-59-11-41 7c-22 3-60 14-84 24l-43 19-54 51-54 51-18 46-17 47-1 75v75l23 60 23 60 42 57c51 68 104 112 175 145l52 25 73 5 74 6 39-13c21-7 51-21 67-32l27-19v757l-11 60-11 59-30 58-31 57-40 36-40 36-56 26-56 26h-70l-70 1-55-19-55-19-75-76c-41-42-86-89-99-104l-23-27h-61l-46 53c-25 28-66 71-91 95l-45 43-55 26-55 27h-70l-70 1-53-19-53-18-58-53-58-54-33-73-34-73-4-82-4-83 11-47c40-160 184-342 657-833 72-75 134-145 138-157l7-20-11-27-10-26-24-11-25-12-23 6-24 6-225 228c-329 334-498 537-566 678l-33 71-15 69c-19 89-19 171 0 260l15 70 41 83 40 83 57 58 57 57 56 32c30 17 82 38 114 47l59 15h122l55-16c30-9 82-31 117-51l63-35 53-53 54-53 64 63 65 63 51 26c29 14 77 33 109 41l57 15h124l63-20c67-20 145-65 192-108l27-26v320l13 16c16 20 47 37 69 38h17l83-57z"/></g></g></svg>